# xmcd CD database file
#
# Track frame offsets:
#	182
#	3915
#	20457
#	34787
#	39992
#	47817
#	53025
#	67947
#	74045
#	79170
#	83052
#	88180
#
# Disc length: 1319 seconds
#
# Revision: 0
# Processed by: cddbd v1.4PL0 Copyright (c) Steve Scherf et al.
# Submitted via: CDex 1.50Beta7
#
DISCID=9205250c
DTITLE=Chloring Chemistry Council - DixieLand Jazz Party
DYEAR=1994
DGENRE=Jazz
TTITLE0=Chemistry is Good
TTITLE1=When the Saints Go Marching In
TTITLE2=Back Home in Indiana
TTITLE3=Put Your Arms Around Me Honey
TTITLE4=Ida, Sweet as Apple Cider
TTITLE5=Maple Leaf Rag
TTITLE6=Sweet Georgia Brown
TTITLE7=Youre a Grand Old Flag
TTITLE8=By the Sea, By the Sea
TTITLE9=Hail, Hail, the Gang's All Here
TTITLE10=Wait till the SUn Shines Nellie
TTITLE11=Chinatown, My Chinatown
EXTD=YEAR: 1994
EXTT0=
EXTT1=
EXTT2=
EXTT3=
EXTT4=
EXTT5=
EXTT6=
EXTT7=
EXTT8=
EXTT9=
EXTT10=
EXTT11=
PLAYORDER=
